<svg xmlns="http://www.w3.org/2000/svg" viewBox="0 0 1600 900" width="1600" height="900" role="img" aria-label="商業施設の内装を仕上げる施工現場のイラスト"><defs><linearGradient id="sky" x1="0" y1="0" x2="0" y2="1"><stop offset="0" stop-color="#e8f3f8"/><stop offset="1" stop-color="#f4f8f5"/></linearGradient><linearGradient id="flr" x1="0" y1="0" x2="0" y2="1"><stop offset="0" stop-color="#e3dcd0"/><stop offset="1" stop-color="#f0ece4"/></linearGradient><linearGradient id="gls" x1="0" y1="0" x2="0" y2="1"><stop offset="0" stop-color="#b9d8e6"/><stop offset="1" stop-color="#d3e6ef"/></linearGradient><linearGradient id="wl2" x1="0" y1="0" x2="1" y2="0"><stop offset="0" stop-color="#e6f0ea" stop-opacity="0"/><stop offset="0.45" stop-color="#e6f0ea" stop-opacity="0.9"/><stop offset="1" stop-color="#e6f0ea" stop-opacity="1"/></linearGradient><linearGradient id="drp" x1="0" y1="0" x2="0" y2="1"><stop offset="0" stop-color="#4f9c86"/><stop offset="1" stop-color="#7ab393"/></linearGradient><radialGradient id="glow" cx="0.5" cy="0.1" r="0.9"><stop offset="0" stop-color="#fbdca6" stop-opacity="0.85"/><stop offset="1" stop-color="#fbdca6" stop-opacity="0"/></radialGradient><filter id="rg" x="-3%" y="-3%" width="106%" height="106%"><feTurbulence type="fractalNoise" baseFrequency="0.014" numOctaves="2" seed="17" result="n"/><feDisplacementMap in="SourceGraphic" in2="n" scale="1.5" xChannelSelector="R" yChannelSelector="G"/></filter></defs><rect width="1600" height="900" fill="#f4f8f5"/><g filter="url(#rg)"><rect width="1600" height="620" fill="url(#sky)"/><rect y="620" width="1600" height="280" fill="url(#flr)"/><rect x="760" y="150" width="840" height="470" fill="url(#wl2)"/><rect x="40.0" y="86.0" width="1520.0" height="26.0" rx="0" fill="#cdd4d0" stroke="#16302a" stroke-width="2.2"/><path d="M40.0 86 L98.5 112" fill="none" stroke="#a8b2ad" stroke-width="1.3" stroke-linecap="round" stroke-linejoin="round"/><path d="M40.0 112 L98.5 86" fill="none" stroke="#a8b2ad" stroke-width="1.3" stroke-linecap="round" stroke-linejoin="round"/><path d="M98.5 86 L156.9 112" fill="none" stroke="#a8b2ad" stroke-width="1.3" stroke-linecap="round" stroke-linejoin="round"/><path d="M98.5 112 L156.9 86" fill="none" stroke="#a8b2ad" stroke-width="1.3" stroke-linecap="round" stroke-linejoin="round"/><path d="M156.9 86 L215.4 112" fill="none" stroke="#a8b2ad" stroke-width="1.3" stroke-linecap="round" stroke-linejoin="round"/><path d="M156.9 112 L215.4 86" fill="none" stroke="#a8b2ad" stroke-width="1.3" stroke-linecap="round" stroke-linejoin="round"/><path d="M215.4 86 L273.8 112" fill="none" stroke="#a8b2ad" stroke-width="1.3" stroke-linecap="round" stroke-linejoin="round"/><path d="M215.4 112 L273.8 86" fill="none" stroke="#a8b2ad" stroke-width="1.3" stroke-linecap="round" stroke-linejoin="round"/><path d="M273.8 86 L332.3 112" fill="none" stroke="#a8b2ad" stroke-width="1.3" stroke-linecap="round" stroke-linejoin="round"/><path d="M273.8 112 L332.3 86" fill="none" stroke="#a8b2ad" stroke-width="1.3" stroke-linecap="round" stroke-linejoin="round"/><path d="M332.3 86 L390.8 112" fill="none" stroke="#a8b2ad" stroke-width="1.3" stroke-linecap="round" stroke-linejoin="round"/><path d="M332.3 112 L390.8 86" fill="none" stroke="#a8b2ad" stroke-width="1.3" stroke-linecap="round" stroke-linejoin="round"/><path d="M390.8 86 L449.2 112" fill="none" stroke="#a8b2ad" stroke-width="1.3" stroke-linecap="round" stroke-linejoin="round"/><path d="M390.8 112 L449.2 86" fill="none" stroke="#a8b2ad" stroke-width="1.3" stroke-linecap="round" stroke-linejoin="round"/><path d="M449.2 86 L507.7 112" fill="none" stroke="#a8b2ad" stroke-width="1.3" stroke-linecap="round" stroke-linejoin="round"/><path d="M449.2 112 L507.7 86" fill="none" stroke="#a8b2ad" stroke-width="1.3" stroke-linecap="round" stroke-linejoin="round"/><path d="M507.7 86 L566.2 112" fill="none" stroke="#a8b2ad" stroke-width="1.3" stroke-linecap="round" stroke-linejoin="round"/><path d="M507.7 112 L566.2 86" fill="none" stroke="#a8b2ad" stroke-width="1.3" stroke-linecap="round" stroke-linejoin="round"/><path d="M566.2 86 L624.6 112" fill="none" stroke="#a8b2ad" stroke-width="1.3" stroke-linecap="round" stroke-linejoin="round"/><path d="M566.2 112 L624.6 86" fill="none" stroke="#a8b2ad" stroke-width="1.3" stroke-linecap="round" stroke-linejoin="round"/><path d="M624.6 86 L683.1 112" fill="none" stroke="#a8b2ad" stroke-width="1.3" stroke-linecap="round" stroke-linejoin="round"/><path d="M624.6 112 L683.1 86" fill="none" stroke="#a8b2ad" stroke-width="1.3" stroke-linecap="round" stroke-linejoin="round"/><path d="M683.1 86 L741.5 112" fill="none" stroke="#a8b2ad" stroke-width="1.3" stroke-linecap="round" stroke-linejoin="round"/><path d="M683.1 112 L741.5 86" fill="none" stroke="#a8b2ad" stroke-width="1.3" stroke-linecap="round" stroke-linejoin="round"/><path d="M741.5 86 L800.0 112" fill="none" stroke="#a8b2ad" stroke-width="1.3" stroke-linecap="round" stroke-linejoin="round"/><path d="M741.5 112 L800.0 86" fill="none" stroke="#a8b2ad" stroke-width="1.3" stroke-linecap="round" stroke-linejoin="round"/><path d="M800.0 86 L858.5 112" fill="none" stroke="#a8b2ad" stroke-width="1.3" stroke-linecap="round" stroke-linejoin="round"/><path d="M800.0 112 L858.5 86" fill="none" stroke="#a8b2ad" stroke-width="1.3" stroke-linecap="round" stroke-linejoin="round"/><path d="M858.5 86 L916.9 112" fill="none" stroke="#a8b2ad" stroke-width="1.3" stroke-linecap="round" stroke-linejoin="round"/><path d="M858.5 112 L916.9 86" fill="none" stroke="#a8b2ad" stroke-width="1.3" stroke-linecap="round" stroke-linejoin="round"/><path d="M916.9 86 L975.4 112" fill="none" stroke="#a8b2ad" stroke-width="1.3" stroke-linecap="round" stroke-linejoin="round"/><path d="M916.9 112 L975.4 86" fill="none" stroke="#a8b2ad" stroke-width="1.3" stroke-linecap="round" stroke-linejoin="round"/><path d="M975.4 86 L1033.8 112" fill="none" stroke="#a8b2ad" stroke-width="1.3" stroke-linecap="round" stroke-linejoin="round"/><path d="M975.4 112 L1033.8 86" fill="none" stroke="#a8b2ad" stroke-width="1.3" stroke-linecap="round" stroke-linejoin="round"/><path d="M1033.8 86 L1092.3 112" fill="none" stroke="#a8b2ad" stroke-width="1.3" stroke-linecap="round" stroke-linejoin="round"/><path d="M1033.8 112 L1092.3 86" fill="none" stroke="#a8b2ad" stroke-width="1.3" stroke-linecap="round" stroke-linejoin="round"/><path d="M1092.3 86 L1150.8 112" fill="none" stroke="#a8b2ad" stroke-width="1.3" stroke-linecap="round" stroke-linejoin="round"/><path d="M1092.3 112 L1150.8 86" fill="none" stroke="#a8b2ad" stroke-width="1.3" stroke-linecap="round" stroke-linejoin="round"/><path d="M1150.8 86 L1209.2 112" fill="none" stroke="#a8b2ad" stroke-width="1.3" stroke-linecap="round" stroke-linejoin="round"/><path d="M1150.8 112 L1209.2 86" fill="none" stroke="#a8b2ad" stroke-width="1.3" stroke-linecap="round" stroke-linejoin="round"/><path d="M1209.2 86 L1267.7 112" fill="none" stroke="#a8b2ad" stroke-width="1.3" stroke-linecap="round" stroke-linejoin="round"/><path d="M1209.2 112 L1267.7 86" fill="none" stroke="#a8b2ad" stroke-width="1.3" stroke-linecap="round" stroke-linejoin="round"/><path d="M1267.7 86 L1326.2 112" fill="none" stroke="#a8b2ad" stroke-width="1.3" stroke-linecap="round" stroke-linejoin="round"/><path d="M1267.7 112 L1326.2 86" fill="none" stroke="#a8b2ad" stroke-width="1.3" stroke-linecap="round" stroke-linejoin="round"/><path d="M1326.2 86 L1384.6 112" fill="none" stroke="#a8b2ad" stroke-width="1.3" stroke-linecap="round" stroke-linejoin="round"/><path d="M1326.2 112 L1384.6 86" fill="none" stroke="#a8b2ad" stroke-width="1.3" stroke-linecap="round" stroke-linejoin="round"/><path d="M1384.6 86 L1443.1 112" fill="none" stroke="#a8b2ad" stroke-width="1.3" stroke-linecap="round" stroke-linejoin="round"/><path d="M1384.6 112 L1443.1 86" fill="none" stroke="#a8b2ad" stroke-width="1.3" stroke-linecap="round" stroke-linejoin="round"/><path d="M1443.1 86 L1501.5 112" fill="none" stroke="#a8b2ad" stroke-width="1.3" stroke-linecap="round" stroke-linejoin="round"/><path d="M1443.1 112 L1501.5 86" fill="none" stroke="#a8b2ad" stroke-width="1.3" stroke-linecap="round" stroke-linejoin="round"/><path d="M1501.5 86 L1560.0 112" fill="none" stroke="#a8b2ad" stroke-width="1.3" stroke-linecap="round" stroke-linejoin="round"/><path d="M1501.5 112 L1560.0 86" fill="none" stroke="#a8b2ad" stroke-width="1.3" stroke-linecap="round" stroke-linejoin="round"/><path d="M40 148 L1560 148" fill="none" stroke="#16302a" stroke-width="1.8" stroke-linecap="round" stroke-linejoin="round"/><path d="M150 148 L150 182" fill="none" stroke="#16302a" stroke-width="1.8" stroke-linecap="round" stroke-linejoin="round"/><path d="M140 182 L160 182 L156.5 198 L143.5 198 Z" fill="#cdd4d0" stroke="#16302a" stroke-width="2.0" stroke-linecap="round" stroke-linejoin="round"/><ellipse cx="150" cy="198" rx="6.5" ry="2.6" fill="#f5b23d" stroke="#16302a" stroke-width="1.6"/><path d="M143.5 200 L120 332 L180 332 L156.5 200 Z" fill="url(#glow)" opacity="0.5"/><path d="M340 148 L340 182" fill="none" stroke="#16302a" stroke-width="1.8" stroke-linecap="round" stroke-linejoin="round"/><path d="M330 182 L350 182 L346.5 198 L333.5 198 Z" fill="#cdd4d0" stroke="#16302a" stroke-width="2.0" stroke-linecap="round" stroke-linejoin="round"/><ellipse cx="340" cy="198" rx="6.5" ry="2.6" fill="#f5b23d" stroke="#16302a" stroke-width="1.6"/><path d="M333.5 200 L310 332 L370 332 L346.5 200 Z" fill="url(#glow)" opacity="0.5"/><path d="M530 148 L530 182" fill="none" stroke="#16302a" stroke-width="1.8" stroke-linecap="round" stroke-linejoin="round"/><path d="M520 182 L540 182 L536.5 198 L523.5 198 Z" fill="#cdd4d0" stroke="#16302a" stroke-width="2.0" stroke-linecap="round" stroke-linejoin="round"/><ellipse cx="530" cy="198" rx="6.5" ry="2.6" fill="#f5b23d" stroke="#16302a" stroke-width="1.6"/><path d="M523.5 200 L500 332 L560 332 L536.5 200 Z" fill="url(#glow)" opacity="0.5"/><path d="M720 148 L720 182" fill="none" stroke="#16302a" stroke-width="1.8" stroke-linecap="round" stroke-linejoin="round"/><path d="M710 182 L730 182 L726.5 198 L713.5 198 Z" fill="#cdd4d0" stroke="#16302a" stroke-width="2.0" stroke-linecap="round" stroke-linejoin="round"/><ellipse cx="720" cy="198" rx="6.5" ry="2.6" fill="#f5b23d" stroke="#16302a" stroke-width="1.6"/><path d="M713.5 200 L690 332 L750 332 L726.5 200 Z" fill="url(#glow)" opacity="0.5"/><path d="M910 148 L910 182" fill="none" stroke="#16302a" stroke-width="1.8" stroke-linecap="round" stroke-linejoin="round"/><path d="M900 182 L920 182 L916.5 198 L903.5 198 Z" fill="#cdd4d0" stroke="#16302a" stroke-width="2.0" stroke-linecap="round" stroke-linejoin="round"/><ellipse cx="910" cy="198" rx="6.5" ry="2.6" fill="#f5b23d" stroke="#16302a" stroke-width="1.6"/><path d="M903.5 200 L880 332 L940 332 L916.5 200 Z" fill="url(#glow)" opacity="0.5"/><path d="M1100 148 L1100 182" fill="none" stroke="#16302a" stroke-width="1.8" stroke-linecap="round" stroke-linejoin="round"/><path d="M1090 182 L1110 182 L1106.5 198 L1093.5 198 Z" fill="#cdd4d0" stroke="#16302a" stroke-width="2.0" stroke-linecap="round" stroke-linejoin="round"/><ellipse cx="1100" cy="198" rx="6.5" ry="2.6" fill="#f5b23d" stroke="#16302a" stroke-width="1.6"/><path d="M1093.5 200 L1070 332 L1130 332 L1106.5 200 Z" fill="url(#glow)" opacity="0.5"/><path d="M1290 148 L1290 182" fill="none" stroke="#16302a" stroke-width="1.8" stroke-linecap="round" stroke-linejoin="round"/><path d="M1280 182 L1300 182 L1296.5 198 L1283.5 198 Z" fill="#cdd4d0" stroke="#16302a" stroke-width="2.0" stroke-linecap="round" stroke-linejoin="round"/><ellipse cx="1290" cy="198" rx="6.5" ry="2.6" fill="#f5b23d" stroke="#16302a" stroke-width="1.6"/><path d="M1283.5 200 L1260 332 L1320 332 L1296.5 200 Z" fill="url(#glow)" opacity="0.5"/><path d="M1480 148 L1480 182" fill="none" stroke="#16302a" stroke-width="1.8" stroke-linecap="round" stroke-linejoin="round"/><path d="M1470 182 L1490 182 L1486.5 198 L1473.5 198 Z" fill="#cdd4d0" stroke="#16302a" stroke-width="2.0" stroke-linecap="round" stroke-linejoin="round"/><ellipse cx="1480" cy="198" rx="6.5" ry="2.6" fill="#f5b23d" stroke="#16302a" stroke-width="1.6"/><path d="M1473.5 200 L1450 332 L1510 332 L1486.5 200 Z" fill="url(#glow)" opacity="0.5"/><path d="M660 148 L660 200" fill="none" stroke="#16302a" stroke-width="1.8" stroke-linecap="round" stroke-linejoin="round"/><path d="M880 148 L880 200" fill="none" stroke="#16302a" stroke-width="1.8" stroke-linecap="round" stroke-linejoin="round"/><rect x="660.0" y="200.0" width="220.0" height="70.0" rx="6" fill="#157c47" stroke="#16302a" stroke-width="2.2"/><rect x="676.0" y="216.0" width="188.0" height="38.0" rx="3" fill="#ffffff" stroke="none" stroke-width="1.4"/><rect x="0" y="608" width="1600" height="12" fill="#cdd4d0"/><path d="M0 620 L1600 620" fill="none" stroke="#16302a" stroke-width="2.4" stroke-linecap="round" stroke-linejoin="round"/><path d="M0 608 L1600 608" fill="none" stroke="#16302a" stroke-width="1.6" stroke-linecap="round" stroke-linejoin="round"/><path d="M1318 620 L1318 347.0 A107.0 107.0 0 0 1 1532 347.0 L1532 620 Z" fill="url(#gls)" stroke="#16302a" stroke-width="2.4" stroke-linecap="round" stroke-linejoin="round"/><path d="M1425.0 240 L1425.0 620" fill="none" stroke="#ffffff" stroke-width="1.8" stroke-linecap="round" stroke-linejoin="round"/><path d="M1318 392.6 L1532 392.6" fill="none" stroke="#ffffff" stroke-width="1.8" stroke-linecap="round" stroke-linejoin="round"/><path d="M1318 529.4 L1532 529.4" fill="none" stroke="#ffffff" stroke-width="1.8" stroke-linecap="round" stroke-linejoin="round"/><path d="M1347.96 620 L1403.6 298.85" fill="none" stroke="#ffffff" stroke-width="3.0" stroke-linecap="round" stroke-linejoin="round"/><rect x="1128.0" y="292.0" width="150.0" height="110.0" rx="0" fill="#e6f0ea" stroke="#16302a" stroke-width="2.2"/><rect x="1137.0" y="301.0" width="132.0" height="92.0" rx="0" fill="#dcece2" stroke="#16302a" stroke-width="1.4"/><rect x="452.0" y="398.0" width="158.0" height="222.0" rx="0" fill="#e6f0ea" stroke="#16302a" stroke-width="2.2"/><path d="M452 453.5 L610 453.5" fill="none" stroke="#16302a" stroke-width="1.6" stroke-linecap="round" stroke-linejoin="round"/><path d="M452 509.0 L610 509.0" fill="none" stroke="#16302a" stroke-width="1.6" stroke-linecap="round" stroke-linejoin="round"/><path d="M452 564.5 L610 564.5" fill="none" stroke="#16302a" stroke-width="1.6" stroke-linecap="round" stroke-linejoin="round"/><rect x="462.0" y="404.0" width="47.4" height="43.5" rx="0" fill="#dcece2" stroke="#16302a" stroke-width="1.4"/><rect x="522.0" y="404.0" width="41.1" height="43.5" rx="0" fill="#ffffff" stroke="#16302a" stroke-width="1.4"/><rect x="462.0" y="459.5" width="47.4" height="43.5" rx="0" fill="#fbdca6" stroke="#16302a" stroke-width="1.4"/><rect x="522.0" y="459.5" width="41.1" height="43.5" rx="0" fill="#ffffff" stroke="#16302a" stroke-width="1.4"/><rect x="462.0" y="515.0" width="47.4" height="43.5" rx="0" fill="#dcece2" stroke="#16302a" stroke-width="1.4"/><rect x="522.0" y="515.0" width="41.1" height="43.5" rx="0" fill="#ffffff" stroke="#16302a" stroke-width="1.4"/><rect x="462.0" y="570.5" width="47.4" height="43.5" rx="0" fill="#d3e6ef" stroke="#16302a" stroke-width="1.4"/><rect x="522.0" y="570.5" width="41.1" height="43.5" rx="0" fill="#ffffff" stroke="#16302a" stroke-width="1.4"/><rect x="132.0" y="318.0" width="152.0" height="112.0" rx="0" fill="#e6f0ea" stroke="#16302a" stroke-width="2.2"/><rect x="141.0" y="327.0" width="134.0" height="94.0" rx="0" fill="#fbdca6" stroke="#16302a" stroke-width="1.4"/><path d="M1176 198 L1294 198 L1291.64 498 Q1235.0 513.0 1178.36 498 Z" fill="url(#drp)" stroke="#16302a" stroke-width="2.2" stroke-linecap="round" stroke-linejoin="round"/><path d="M1195.7 198.0 C1189.8 300.0 1201.6 402.0 1193.3 498.0" fill="none" stroke="#ffffff" stroke-width="1.5" stroke-linecap="round" stroke-linejoin="round"/><path d="M1215.3 198.0 C1209.4 300.0 1221.2 402.0 1213.0 498.0" fill="none" stroke="#ffffff" stroke-width="1.5" stroke-linecap="round" stroke-linejoin="round"/><path d="M1235.0 198.0 C1229.1 300.0 1240.9 402.0 1232.6 498.0" fill="none" stroke="#ffffff" stroke-width="1.5" stroke-linecap="round" stroke-linejoin="round"/><path d="M1254.7 198.0 C1248.8 300.0 1260.6 402.0 1252.3 498.0" fill="none" stroke="#ffffff" stroke-width="1.5" stroke-linecap="round" stroke-linejoin="round"/><path d="M1274.3 198.0 C1268.4 300.0 1280.2 402.0 1272.0 498.0" fill="none" stroke="#ffffff" stroke-width="1.5" stroke-linecap="round" stroke-linejoin="round"/><rect x="1170.0" y="190.0" width="130.0" height="12.0" rx="3" fill="#cdd4d0" stroke="#16302a" stroke-width="2.0"/><path d="M1136.0 620.0 L1181.0 320.0" fill="none" stroke="#16302a" stroke-width="7.6" stroke-linecap="round" stroke-linejoin="round"/><path d="M1136.0 620.0 L1181.0 320.0" fill="none" stroke="#f5b23d" stroke-width="5.0" stroke-linecap="round" stroke-linejoin="round"/><path d="M1160.6 620.0 L1205.6 320.0" fill="none" stroke="#16302a" stroke-width="7.6" stroke-linecap="round" stroke-linejoin="round"/><path d="M1160.6 620.0 L1205.6 320.0" fill="none" stroke="#f5b23d" stroke-width="5.0" stroke-linecap="round" stroke-linejoin="round"/><path d="M1141.6 582.5 L1166.2 582.5" fill="none" stroke="#16302a" stroke-width="3.2" stroke-linecap="round" stroke-linejoin="round"/><path d="M1141.6 582.5 L1166.2 582.5" fill="none" stroke="#fbdca6" stroke-width="1.6" stroke-linecap="round" stroke-linejoin="round"/><path d="M1147.2 545.0 L1171.8 545.0" fill="none" stroke="#16302a" stroke-width="3.2" stroke-linecap="round" stroke-linejoin="round"/><path d="M1147.2 545.0 L1171.8 545.0" fill="none" stroke="#fbdca6" stroke-width="1.6" stroke-linecap="round" stroke-linejoin="round"/><path d="M1152.9 507.5 L1177.5 507.5" fill="none" stroke="#16302a" stroke-width="3.2" stroke-linecap="round" stroke-linejoin="round"/><path d="M1152.9 507.5 L1177.5 507.5" fill="none" stroke="#fbdca6" stroke-width="1.6" stroke-linecap="round" stroke-linejoin="round"/><path d="M1158.5 470.0 L1183.1 470.0" fill="none" stroke="#16302a" stroke-width="3.2" stroke-linecap="round" stroke-linejoin="round"/><path d="M1158.5 470.0 L1183.1 470.0" fill="none" stroke="#fbdca6" stroke-width="1.6" stroke-linecap="round" stroke-linejoin="round"/><path d="M1164.1 432.5 L1188.7 432.5" fill="none" stroke="#16302a" stroke-width="3.2" stroke-linecap="round" stroke-linejoin="round"/><path d="M1164.1 432.5 L1188.7 432.5" fill="none" stroke="#fbdca6" stroke-width="1.6" stroke-linecap="round" stroke-linejoin="round"/><path d="M1169.8 395.0 L1194.3 395.0" fill="none" stroke="#16302a" stroke-width="3.2" stroke-linecap="round" stroke-linejoin="round"/><path d="M1169.8 395.0 L1194.3 395.0" fill="none" stroke="#fbdca6" stroke-width="1.6" stroke-linecap="round" stroke-linejoin="round"/><path d="M1175.4 357.5 L1200.0 357.5" fill="none" stroke="#16302a" stroke-width="3.2" stroke-linecap="round" stroke-linejoin="round"/><path d="M1175.4 357.5 L1200.0 357.5" fill="none" stroke="#fbdca6" stroke-width="1.6" stroke-linecap="round" stroke-linejoin="round"/><path d="M1187.8 331.0 C1187.0 357.0 1186.0 357.0 1185.4 382.3" fill="none" stroke="#16302a" stroke-width="7.9" stroke-linecap="round" stroke-linejoin="round"/><path d="M1187.8 331.0 C1187.0 357.0 1186.0 357.0 1185.4 382.3" fill="none" stroke="#3f5b70" stroke-width="5.300000000000001" stroke-linecap="round" stroke-linejoin="round"/><path d="M1196.2 331.0 C1197.3 357.0 1198.6 357.0 1199.6 382.3" fill="none" stroke="#16302a" stroke-width="7.9" stroke-linecap="round" stroke-linejoin="round"/><path d="M1196.2 331.0 C1197.3 357.0 1198.6 357.0 1199.6 382.3" fill="none" stroke="#3f5b70" stroke-width="5.300000000000001" stroke-linecap="round" stroke-linejoin="round"/><path d="M1181.6 384.0 L1189.6 384.0" fill="none" stroke="#16302a" stroke-width="3.1799999999999997" stroke-linecap="round" stroke-linejoin="round"/><path d="M1195.8 384.0 L1203.8 384.0" fill="none" stroke="#16302a" stroke-width="3.1799999999999997" stroke-linecap="round" stroke-linejoin="round"/><path d="M1183.0 301.7 C1179.5 313.4 1180.0 328.9 1181.8 334.2" fill="none" stroke="#16302a" stroke-width="7.052" stroke-linecap="round" stroke-linejoin="round"/><path d="M1183.0 301.7 C1179.5 313.4 1180.0 328.9 1181.8 334.2" fill="none" stroke="#4f9c86" stroke-width="4.452" stroke-linecap="round" stroke-linejoin="round"/><path d="M1182.0 299.8 C1181.7 295.4 1202.3 295.4 1202.0 299.8 C1200.9 313.4 1200.1 324.6 1199.7 331.0 L1184.3 331.0 C1183.9 324.6 1183.1 313.4 1182.0 299.8 Z" fill="#4f9c86" stroke="#16302a" stroke-width="2.1" stroke-linecap="round" stroke-linejoin="round"/><path d="M1183.8 323.1 L1200.2 323.1" fill="none" stroke="#fbdca6" stroke-width="2.12" stroke-linecap="round" stroke-linejoin="round"/><path d="M1192.0 293.7 L1192.0 298.6" fill="none" stroke="#f1d3b9" stroke-width="3.1799999999999997" stroke-linecap="round" stroke-linejoin="round"/><circle cx="1192.0" cy="285.9" r="7.8" fill="#f1d3b9" stroke="#16302a" stroke-width="2.0"/><path d="M1182.6 285.5 A9.6 9.1 0 0 1 1201.4 285.5 Z" fill="#ffffff" stroke="#16302a" stroke-width="2.0" stroke-linecap="round" stroke-linejoin="round"/><path d="M1180.5 285.8 L1203.5 285.8" fill="none" stroke="#ffffff" stroke-width="2.756" stroke-linecap="round" stroke-linejoin="round"/><path d="M1180.5 285.8 L1203.5 285.8" fill="none" stroke="#16302a" stroke-width="1.8" stroke-linecap="round" stroke-linejoin="round"/><path d="M1201.0 301.3 C1206.9 293.3 1208.1 283.7 1206.5 275.8" fill="none" stroke="#16302a" stroke-width="7.052" stroke-linecap="round" stroke-linejoin="round"/><path d="M1201.0 301.3 C1206.9 293.3 1208.1 283.7 1206.5 275.8" fill="none" stroke="#4f9c86" stroke-width="4.452" stroke-linecap="round" stroke-linejoin="round"/><path d="M1480.5 660.0 L1484.4 626.2 L1515.6 626.2 L1519.5 660.0 Z" fill="#dcbb8d" stroke="#16302a" stroke-width="2.1" stroke-linecap="round" stroke-linejoin="round"/><path d="M1483.1 626.2 L1516.9 626.2" fill="none" stroke="#c09a68" stroke-width="1.8" stroke-linecap="round" stroke-linejoin="round"/><path d="M1500.0 626.2 Q1463.0 620.2 1452.1 614.2" fill="none" stroke="#157c47" stroke-width="8.450000000000001" stroke-linecap="round" stroke-linejoin="round"/><path d="M1500.0 626.2 Q1463.0 620.2 1452.1 614.2" fill="none" stroke="#7ab393" stroke-width="3.3800000000000003" stroke-linecap="round" stroke-linejoin="round"/><path d="M1500.0 626.2 Q1462.8 604.5 1451.7 582.7" fill="none" stroke="#157c47" stroke-width="8.450000000000001" stroke-linecap="round" stroke-linejoin="round"/><path d="M1500.0 626.2 Q1462.8 604.5 1451.7 582.7" fill="none" stroke="#7ab393" stroke-width="3.3800000000000003" stroke-linecap="round" stroke-linejoin="round"/><path d="M1500.0 626.2 Q1476.6 590.0 1479.2 553.7" fill="none" stroke="#157c47" stroke-width="8.450000000000001" stroke-linecap="round" stroke-linejoin="round"/><path d="M1500.0 626.2 Q1476.6 590.0 1479.2 553.7" fill="none" stroke="#7ab393" stroke-width="3.3800000000000003" stroke-linecap="round" stroke-linejoin="round"/><path d="M1500.0 626.2 Q1522.0 595.0 1517.9 563.7" fill="none" stroke="#157c47" stroke-width="8.450000000000001" stroke-linecap="round" stroke-linejoin="round"/><path d="M1500.0 626.2 Q1522.0 595.0 1517.9 563.7" fill="none" stroke="#7ab393" stroke-width="3.3800000000000003" stroke-linecap="round" stroke-linejoin="round"/><path d="M1500.0 626.2 Q1531.4 609.7 1536.7 593.1" fill="none" stroke="#157c47" stroke-width="8.450000000000001" stroke-linecap="round" stroke-linejoin="round"/><path d="M1500.0 626.2 Q1531.4 609.7 1536.7 593.1" fill="none" stroke="#7ab393" stroke-width="3.3800000000000003" stroke-linecap="round" stroke-linejoin="round"/><path d="M1500.0 626.2 Q1530.7 621.8 1535.3 617.4" fill="none" stroke="#157c47" stroke-width="8.450000000000001" stroke-linecap="round" stroke-linejoin="round"/><path d="M1500.0 626.2 Q1530.7 621.8 1535.3 617.4" fill="none" stroke="#7ab393" stroke-width="3.3800000000000003" stroke-linecap="round" stroke-linejoin="round"/><path d="M1063.8 638.0 L1066.6 613.3 L1089.4 613.3 L1092.2 638.0 Z" fill="#dcbb8d" stroke="#16302a" stroke-width="2.1" stroke-linecap="round" stroke-linejoin="round"/><path d="M1065.7 613.3 L1090.3 613.3" fill="none" stroke="#c09a68" stroke-width="1.8" stroke-linecap="round" stroke-linejoin="round"/><path d="M1078.0 613.3 Q1051.0 608.9 1043.0 604.6" fill="none" stroke="#157c47" stroke-width="6.175" stroke-linecap="round" stroke-linejoin="round"/><path d="M1078.0 613.3 Q1051.0 608.9 1043.0 604.6" fill="none" stroke="#7ab393" stroke-width="2.4699999999999998" stroke-linecap="round" stroke-linejoin="round"/><path d="M1078.0 613.3 Q1050.9 597.4 1042.7 581.5" fill="none" stroke="#157c47" stroke-width="6.175" stroke-linecap="round" stroke-linejoin="round"/><path d="M1078.0 613.3 Q1050.9 597.4 1042.7 581.5" fill="none" stroke="#7ab393" stroke-width="2.4699999999999998" stroke-linecap="round" stroke-linejoin="round"/><path d="M1078.0 613.3 Q1060.9 586.8 1062.8 560.3" fill="none" stroke="#157c47" stroke-width="6.175" stroke-linecap="round" stroke-linejoin="round"/><path d="M1078.0 613.3 Q1060.9 586.8 1062.8 560.3" fill="none" stroke="#7ab393" stroke-width="2.4699999999999998" stroke-linecap="round" stroke-linejoin="round"/><path d="M1078.0 613.3 Q1094.0 590.5 1091.1 567.6" fill="none" stroke="#157c47" stroke-width="6.175" stroke-linecap="round" stroke-linejoin="round"/><path d="M1078.0 613.3 Q1094.0 590.5 1091.1 567.6" fill="none" stroke="#7ab393" stroke-width="2.4699999999999998" stroke-linecap="round" stroke-linejoin="round"/><path d="M1078.0 613.3 Q1100.9 601.2 1104.8 589.1" fill="none" stroke="#157c47" stroke-width="6.175" stroke-linecap="round" stroke-linejoin="round"/><path d="M1078.0 613.3 Q1100.9 601.2 1104.8 589.1" fill="none" stroke="#7ab393" stroke-width="2.4699999999999998" stroke-linecap="round" stroke-linejoin="round"/><path d="M1078.0 613.3 Q1100.4 610.1 1103.8 606.9" fill="none" stroke="#157c47" stroke-width="6.175" stroke-linecap="round" stroke-linejoin="round"/><path d="M1078.0 613.3 Q1100.4 610.1 1103.8 606.9" fill="none" stroke="#7ab393" stroke-width="2.4699999999999998" stroke-linecap="round" stroke-linejoin="round"/><path d="M970.6 620.0 L1000.0 468.0" fill="none" stroke="#16302a" stroke-width="7.6" stroke-linecap="round" stroke-linejoin="round"/><path d="M970.6 620.0 L1000.0 468.0" fill="none" stroke="#f5b23d" stroke-width="5.0" stroke-linecap="round" stroke-linejoin="round"/><path d="M1037.4 620.0 L1008.0 468.0" fill="none" stroke="#16302a" stroke-width="7.6" stroke-linecap="round" stroke-linejoin="round"/><path d="M1037.4 620.0 L1008.0 468.0" fill="none" stroke="#f5b23d" stroke-width="5.0" stroke-linecap="round" stroke-linejoin="round"/><path d="M978.8 577.4 L1029.2 577.4" fill="none" stroke="#16302a" stroke-width="3.4" stroke-linecap="round" stroke-linejoin="round"/><path d="M978.8 577.4 L1029.2 577.4" fill="none" stroke="#fbdca6" stroke-width="1.8" stroke-linecap="round" stroke-linejoin="round"/><path d="M985.9 541.0 L1022.1 541.0" fill="none" stroke="#16302a" stroke-width="3.4" stroke-linecap="round" stroke-linejoin="round"/><path d="M985.9 541.0 L1022.1 541.0" fill="none" stroke="#fbdca6" stroke-width="1.8" stroke-linecap="round" stroke-linejoin="round"/><path d="M992.9 504.5 L1015.1 504.5" fill="none" stroke="#16302a" stroke-width="3.4" stroke-linecap="round" stroke-linejoin="round"/><path d="M992.9 504.5 L1015.1 504.5" fill="none" stroke="#fbdca6" stroke-width="1.8" stroke-linecap="round" stroke-linejoin="round"/><path d="M999.7 459.0 C998.8 485.9 997.8 485.9 997.1 512.2" fill="none" stroke="#16302a" stroke-width="8.1" stroke-linecap="round" stroke-linejoin="round"/><path d="M999.7 459.0 C998.8 485.9 997.8 485.9 997.1 512.2" fill="none" stroke="#cdd4d0" stroke-width="5.5" stroke-linecap="round" stroke-linejoin="round"/><path d="M1008.3 459.0 C1009.5 485.9 1010.9 485.9 1011.9 512.2" fill="none" stroke="#16302a" stroke-width="8.1" stroke-linecap="round" stroke-linejoin="round"/><path d="M1008.3 459.0 C1009.5 485.9 1010.9 485.9 1011.9 512.2" fill="none" stroke="#cdd4d0" stroke-width="5.5" stroke-linecap="round" stroke-linejoin="round"/><path d="M993.2 514.0 L1001.5 514.0" fill="none" stroke="#16302a" stroke-width="3.3" stroke-linecap="round" stroke-linejoin="round"/><path d="M1007.9 514.0 L1016.3 514.0" fill="none" stroke="#16302a" stroke-width="3.3" stroke-linecap="round" stroke-linejoin="round"/><path d="M994.7 428.6 C991.1 440.7 991.6 456.8 993.5 462.3" fill="none" stroke="#16302a" stroke-width="7.220000000000001" stroke-linecap="round" stroke-linejoin="round"/><path d="M994.7 428.6 C991.1 440.7 991.6 456.8 993.5 462.3" fill="none" stroke="#157c47" stroke-width="4.62" stroke-linecap="round" stroke-linejoin="round"/><path d="M993.7 426.7 C993.3 422.0 1014.7 422.0 1014.3 426.7 C1013.2 440.7 1012.4 452.4 1012.0 459.0 L996.0 459.0 C995.6 452.4 994.8 440.7 993.7 426.7 Z" fill="#157c47" stroke="#16302a" stroke-width="2.1" stroke-linecap="round" stroke-linejoin="round"/><path d="M995.5 450.8 L1012.5 450.8" fill="none" stroke="#fbdca6" stroke-width="2.2" stroke-linecap="round" stroke-linejoin="round"/><path d="M1004.0 420.3 L1004.0 425.3" fill="none" stroke="#f1d3b9" stroke-width="3.3" stroke-linecap="round" stroke-linejoin="round"/><circle cx="1004.0" cy="412.2" r="8.1" fill="#f1d3b9" stroke="#16302a" stroke-width="2.0"/><path d="M994.2 411.8 A9.9 9.4 0 0 1 1013.8 411.8 Z" fill="#f5b23d" stroke="#16302a" stroke-width="2.0" stroke-linecap="round" stroke-linejoin="round"/><path d="M992.1 412.1 L1015.9 412.1" fill="none" stroke="#f5b23d" stroke-width="2.86" stroke-linecap="round" stroke-linejoin="round"/><path d="M992.1 412.1 L1015.9 412.1" fill="none" stroke="#16302a" stroke-width="1.8" stroke-linecap="round" stroke-linejoin="round"/><path d="M1013.3 428.2 C1019.5 419.8 1020.8 409.9 1019.1 401.7" fill="none" stroke="#16302a" stroke-width="7.220000000000001" stroke-linecap="round" stroke-linejoin="round"/><path d="M1013.3 428.2 C1019.5 419.8 1020.8 409.9 1019.1 401.7" fill="none" stroke="#157c47" stroke-width="4.62" stroke-linecap="round" stroke-linejoin="round"/><rect x="936.0" y="346.0" width="152.0" height="118.0" rx="0" fill="#e6f0ea" stroke="#16302a" stroke-width="2.2"/><rect x="945.0" y="355.0" width="134.0" height="100.0" rx="0" fill="#dcece2" stroke="#16302a" stroke-width="1.4"/><ellipse cx="833.0" cy="624.0" rx="120.0" ry="20.4" fill="#16302a" opacity="0.13"/><path d="M742 524 L924 524 L924 620 L742 620 Z" fill="#ffffff" stroke="#16302a" stroke-width="2.2" stroke-linecap="round" stroke-linejoin="round"/><path d="M742 524 L788 501.0 L970 501.0 L924 524 Z" fill="#dcbb8d" stroke="#16302a" stroke-width="2.2" stroke-linecap="round" stroke-linejoin="round"/><path d="M924 620 L970 597.0 L970 501.0" fill="#ffffff" stroke="#16302a" stroke-width="2.2" stroke-linecap="round" stroke-linejoin="round"/><path d="M742 564.3 L924 564.3" fill="none" stroke="#16302a" stroke-width="1.5" stroke-linecap="round" stroke-linejoin="round"/><ellipse cx="706.0" cy="623.0" rx="26.0" ry="4.4" fill="#16302a" opacity="0.16"/><path d="M701.3 560.0 C700.3 589.4 699.3 589.4 698.5 618.1" fill="none" stroke="#16302a" stroke-width="8.6" stroke-linecap="round" stroke-linejoin="round"/><path d="M701.3 560.0 C700.3 589.4 699.3 589.4 698.5 618.1" fill="none" stroke="#3f5b70" stroke-width="6.0" stroke-linecap="round" stroke-linejoin="round"/><path d="M710.7 560.0 C712.0 589.4 713.5 589.4 714.6 618.1" fill="none" stroke="#16302a" stroke-width="8.6" stroke-linecap="round" stroke-linejoin="round"/><path d="M710.7 560.0 C712.0 589.4 713.5 589.4 714.6 618.1" fill="none" stroke="#3f5b70" stroke-width="6.0" stroke-linecap="round" stroke-linejoin="round"/><path d="M694.2 620.0 L703.3 620.0" fill="none" stroke="#16302a" stroke-width="3.5999999999999996" stroke-linecap="round" stroke-linejoin="round"/><path d="M710.3 620.0 L719.4 620.0" fill="none" stroke="#16302a" stroke-width="3.5999999999999996" stroke-linecap="round" stroke-linejoin="round"/><path d="M695.8 526.9 C691.9 540.1 692.5 557.6 694.5 563.6" fill="none" stroke="#16302a" stroke-width="7.640000000000001" stroke-linecap="round" stroke-linejoin="round"/><path d="M695.8 526.9 C691.9 540.1 692.5 557.6 694.5 563.6" fill="none" stroke="#f5b23d" stroke-width="5.04" stroke-linecap="round" stroke-linejoin="round"/><path d="M694.7 524.7 C694.4 519.7 717.6 519.7 717.3 524.7 C716.0 540.1 715.1 552.8 714.8 560.0 L697.2 560.0 C696.9 552.8 696.0 540.1 694.7 524.7 Z" fill="#f5b23d" stroke="#16302a" stroke-width="2.1" stroke-linecap="round" stroke-linejoin="round"/><path d="M696.7 551.0 L715.3 551.0" fill="none" stroke="#fbdca6" stroke-width="2.4" stroke-linecap="round" stroke-linejoin="round"/><path d="M706.0 517.8 L706.0 523.3" fill="none" stroke="#f1d3b9" stroke-width="3.5999999999999996" stroke-linecap="round" stroke-linejoin="round"/><circle cx="706.0" cy="509.0" r="8.9" fill="#f1d3b9" stroke="#16302a" stroke-width="2.0"/><path d="M695.3 508.5 A10.8 10.3 0 0 1 716.7 508.5 Z" fill="#ffffff" stroke="#16302a" stroke-width="2.0" stroke-linecap="round" stroke-linejoin="round"/><path d="M693.0 508.8 L719.0 508.8" fill="none" stroke="#ffffff" stroke-width="3.1199999999999997" stroke-linecap="round" stroke-linejoin="round"/><path d="M693.0 508.8 L719.0 508.8" fill="none" stroke="#16302a" stroke-width="1.8" stroke-linecap="round" stroke-linejoin="round"/><path d="M716.2 526.9 C722.9 531.7 726.5 532.9 728.3 532.3" fill="none" stroke="#16302a" stroke-width="7.640000000000001" stroke-linecap="round" stroke-linejoin="round"/><path d="M716.2 526.9 C722.9 531.7 726.5 532.9 728.3 532.3" fill="none" stroke="#f5b23d" stroke-width="5.04" stroke-linecap="round" stroke-linejoin="round"/><ellipse cx="962.0" cy="623.0" rx="26.0" ry="4.4" fill="#16302a" opacity="0.16"/><path d="M957.3 561.0 C956.4 589.9 955.4 589.9 954.6 618.1" fill="none" stroke="#16302a" stroke-width="8.5" stroke-linecap="round" stroke-linejoin="round"/><path d="M957.3 561.0 C956.4 589.9 955.4 589.9 954.6 618.1" fill="none" stroke="#cdd4d0" stroke-width="5.9" stroke-linecap="round" stroke-linejoin="round"/><path d="M966.7 561.0 C967.9 589.9 969.4 589.9 970.4 618.1" fill="none" stroke="#16302a" stroke-width="8.5" stroke-linecap="round" stroke-linejoin="round"/><path d="M966.7 561.0 C967.9 589.9 969.4 589.9 970.4 618.1" fill="none" stroke="#cdd4d0" stroke-width="5.9" stroke-linecap="round" stroke-linejoin="round"/><path d="M950.4 620.0 L959.4 620.0" fill="none" stroke="#16302a" stroke-width="3.54" stroke-linecap="round" stroke-linejoin="round"/><path d="M966.2 620.0 L975.1 620.0" fill="none" stroke="#16302a" stroke-width="3.54" stroke-linecap="round" stroke-linejoin="round"/><path d="M972.0 528.4 C975.9 541.4 975.3 558.6 973.3 564.5" fill="none" stroke="#16302a" stroke-width="7.556000000000001" stroke-linecap="round" stroke-linejoin="round"/><path d="M972.0 528.4 C975.9 541.4 975.3 558.6 973.3 564.5" fill="none" stroke="#3f5b70" stroke-width="4.956" stroke-linecap="round" stroke-linejoin="round"/><path d="M950.9 526.3 C950.6 521.4 973.4 521.4 973.1 526.3 C971.9 541.4 971.0 553.9 970.6 561.0 L953.4 561.0 C953.0 553.9 952.1 541.4 950.9 526.3 Z" fill="#3f5b70" stroke="#16302a" stroke-width="2.1" stroke-linecap="round" stroke-linejoin="round"/><path d="M952.9 552.1 L971.1 552.1" fill="none" stroke="#fbdca6" stroke-width="2.36" stroke-linecap="round" stroke-linejoin="round"/><path d="M962.0 519.5 L962.0 524.9" fill="none" stroke="#f1d3b9" stroke-width="3.54" stroke-linecap="round" stroke-linejoin="round"/><circle cx="962.0" cy="510.9" r="8.7" fill="#f1d3b9" stroke="#16302a" stroke-width="2.0"/><path d="M951.5 510.3 A10.7 10.1 0 0 1 972.5 510.3 Z" fill="#f5b23d" stroke="#16302a" stroke-width="2.0" stroke-linecap="round" stroke-linejoin="round"/><path d="M949.3 510.7 L974.7 510.7" fill="none" stroke="#f5b23d" stroke-width="3.068" stroke-linecap="round" stroke-linejoin="round"/><path d="M949.3 510.7 L974.7 510.7" fill="none" stroke="#16302a" stroke-width="1.8" stroke-linecap="round" stroke-linejoin="round"/><path d="M952.0 528.4 C945.4 533.2 941.8 534.3 940.0 533.7" fill="none" stroke="#16302a" stroke-width="7.556000000000001" stroke-linecap="round" stroke-linejoin="round"/><path d="M952.0 528.4 C945.4 533.2 941.8 534.3 940.0 533.7" fill="none" stroke="#3f5b70" stroke-width="4.956" stroke-linecap="round" stroke-linejoin="round"/><path d="M286 546 L500 546 L500 620 L286 620 Z" fill="#ffffff" stroke="#16302a" stroke-width="2.2" stroke-linecap="round" stroke-linejoin="round"/><path d="M286 546 L328 525.0 L542 525.0 L500 546 Z" fill="#cdd4d0" stroke="#16302a" stroke-width="2.2" stroke-linecap="round" stroke-linejoin="round"/><path d="M500 620 L542 599.0 L542 525.0" fill="#ffffff" stroke="#16302a" stroke-width="2.2" stroke-linecap="round" stroke-linejoin="round"/><path d="M286 577.1 L500 577.1" fill="none" stroke="#16302a" stroke-width="1.5" stroke-linecap="round" stroke-linejoin="round"/><rect x="336.0" y="528.0" width="120.0" height="16.0" rx="2" fill="#ffffff" stroke="#16302a" stroke-width="1.8"/><ellipse cx="294.0" cy="623.0" rx="27.0" ry="4.6" fill="#16302a" opacity="0.16"/><path d="M289.2 559.0 C288.3 588.9 287.1 588.9 286.4 618.0" fill="none" stroke="#16302a" stroke-width="8.700000000000001" stroke-linecap="round" stroke-linejoin="round"/><path d="M289.2 559.0 C288.3 588.9 287.1 588.9 286.4 618.0" fill="none" stroke="#3f5b70" stroke-width="6.1000000000000005" stroke-linecap="round" stroke-linejoin="round"/><path d="M298.8 559.0 C300.1 588.9 301.6 588.9 302.7 618.0" fill="none" stroke="#16302a" stroke-width="8.700000000000001" stroke-linecap="round" stroke-linejoin="round"/><path d="M298.8 559.0 C300.1 588.9 301.6 588.9 302.7 618.0" fill="none" stroke="#3f5b70" stroke-width="6.1000000000000005" stroke-linecap="round" stroke-linejoin="round"/><path d="M282.0 620.0 L291.3 620.0" fill="none" stroke="#16302a" stroke-width="3.6599999999999997" stroke-linecap="round" stroke-linejoin="round"/><path d="M298.3 620.0 L307.6 620.0" fill="none" stroke="#16302a" stroke-width="3.6599999999999997" stroke-linecap="round" stroke-linejoin="round"/><path d="M283.7 525.3 C279.7 538.7 280.2 556.6 282.3 562.7" fill="none" stroke="#16302a" stroke-width="7.724" stroke-linecap="round" stroke-linejoin="round"/><path d="M283.7 525.3 C279.7 538.7 280.2 556.6 282.3 562.7" fill="none" stroke="#157c47" stroke-width="5.1240000000000006" stroke-linecap="round" stroke-linejoin="round"/><path d="M282.5 523.1 C282.2 518.0 305.8 518.0 305.5 523.1 C304.2 538.7 303.3 551.7 302.9 559.0 L285.1 559.0 C284.7 551.7 283.8 538.7 282.5 523.1 Z" fill="#157c47" stroke="#16302a" stroke-width="2.1" stroke-linecap="round" stroke-linejoin="round"/><path d="M284.5 549.9 L303.5 549.9" fill="none" stroke="#fbdca6" stroke-width="2.44" stroke-linecap="round" stroke-linejoin="round"/><path d="M294.0 516.1 L294.0 521.7" fill="none" stroke="#f1d3b9" stroke-width="3.6599999999999997" stroke-linecap="round" stroke-linejoin="round"/><circle cx="294.0" cy="507.1" r="9.0" fill="#f1d3b9" stroke="#16302a" stroke-width="2.0"/><path d="M283.2 506.6 A11.0 10.5 0 0 1 304.8 506.6 Z" fill="#ffffff" stroke="#16302a" stroke-width="2.0" stroke-linecap="round" stroke-linejoin="round"/><path d="M280.8 507.0 L307.2 507.0" fill="none" stroke="#ffffff" stroke-width="3.1719999999999997" stroke-linecap="round" stroke-linejoin="round"/><path d="M280.8 507.0 L307.2 507.0" fill="none" stroke="#16302a" stroke-width="1.8" stroke-linecap="round" stroke-linejoin="round"/><path d="M304.3 525.1 C312.3 522.9 318.1 518.0 321.1 515.0" fill="none" stroke="#16302a" stroke-width="7.724" stroke-linecap="round" stroke-linejoin="round"/><path d="M304.3 525.1 C312.3 522.9 318.1 518.0 321.1 515.0" fill="none" stroke="#157c47" stroke-width="5.1240000000000006" stroke-linecap="round" stroke-linejoin="round"/><ellipse cx="402.0" cy="623.0" rx="26.0" ry="4.4" fill="#16302a" opacity="0.16"/><path d="M397.3 560.0 C396.3 589.4 395.3 589.4 394.5 618.1" fill="none" stroke="#16302a" stroke-width="8.6" stroke-linecap="round" stroke-linejoin="round"/><path d="M397.3 560.0 C396.3 589.4 395.3 589.4 394.5 618.1" fill="none" stroke="#cdd4d0" stroke-width="6.0" stroke-linecap="round" stroke-linejoin="round"/><path d="M406.7 560.0 C408.0 589.4 409.5 589.4 410.6 618.1" fill="none" stroke="#16302a" stroke-width="8.6" stroke-linecap="round" stroke-linejoin="round"/><path d="M406.7 560.0 C408.0 589.4 409.5 589.4 410.6 618.1" fill="none" stroke="#cdd4d0" stroke-width="6.0" stroke-linecap="round" stroke-linejoin="round"/><path d="M390.2 620.0 L399.3 620.0" fill="none" stroke="#16302a" stroke-width="3.5999999999999996" stroke-linecap="round" stroke-linejoin="round"/><path d="M406.3 620.0 L415.4 620.0" fill="none" stroke="#16302a" stroke-width="3.5999999999999996" stroke-linecap="round" stroke-linejoin="round"/><path d="M412.2 526.9 C416.1 540.1 415.5 557.6 413.5 563.6" fill="none" stroke="#16302a" stroke-width="7.640000000000001" stroke-linecap="round" stroke-linejoin="round"/><path d="M412.2 526.9 C416.1 540.1 415.5 557.6 413.5 563.6" fill="none" stroke="#ffffff" stroke-width="5.04" stroke-linecap="round" stroke-linejoin="round"/><path d="M390.7 524.7 C390.4 519.7 413.6 519.7 413.3 524.7 C412.0 540.1 411.1 552.8 410.8 560.0 L393.2 560.0 C392.9 552.8 392.0 540.1 390.7 524.7 Z" fill="#ffffff" stroke="#16302a" stroke-width="2.1" stroke-linecap="round" stroke-linejoin="round"/><path d="M392.7 551.0 L411.3 551.0" fill="none" stroke="#fbdca6" stroke-width="2.4" stroke-linecap="round" stroke-linejoin="round"/><path d="M402.0 517.8 L402.0 523.3" fill="none" stroke="#f1d3b9" stroke-width="3.5999999999999996" stroke-linecap="round" stroke-linejoin="round"/><circle cx="402.0" cy="509.0" r="8.9" fill="#f1d3b9" stroke="#16302a" stroke-width="2.0"/><path d="M391.3 508.5 A10.8 10.3 0 0 1 412.7 508.5 Z" fill="#157c47" stroke="#16302a" stroke-width="2.0" stroke-linecap="round" stroke-linejoin="round"/><path d="M389.0 508.8 L415.0 508.8" fill="none" stroke="#157c47" stroke-width="3.1199999999999997" stroke-linecap="round" stroke-linejoin="round"/><path d="M389.0 508.8 L415.0 508.8" fill="none" stroke="#16302a" stroke-width="1.8" stroke-linecap="round" stroke-linejoin="round"/><path d="M412.6 526.9 C416.7 535.3 412.2 543.7 406.7 543.1" fill="none" stroke="#16302a" stroke-width="7.640000000000001" stroke-linecap="round" stroke-linejoin="round"/><path d="M412.6 526.9 C416.7 535.3 412.2 543.7 406.7 543.1" fill="none" stroke="#ffffff" stroke-width="5.04" stroke-linecap="round" stroke-linejoin="round"/><path d="M391.4 526.9 C387.3 535.3 391.8 543.7 397.3 543.1" fill="none" stroke="#16302a" stroke-width="7.640000000000001" stroke-linecap="round" stroke-linejoin="round"/><path d="M391.4 526.9 C387.3 535.3 391.8 543.7 397.3 543.1" fill="none" stroke="#ffffff" stroke-width="5.04" stroke-linecap="round" stroke-linejoin="round"/><path d="M0 884 L1600 884" fill="none" stroke="#a8b2ad" stroke-width="1.8" stroke-linecap="round" stroke-linejoin="round"/><ellipse cx="742.0" cy="882.0" rx="58.0" ry="9.9" fill="#16302a" opacity="0.13"/><ellipse cx="849.0" cy="880.0" rx="40.0" ry="6.8" fill="#16302a" opacity="0.13"/><rect x="692.0" y="792.0" width="100.0" height="88.0" rx="0" fill="#dcbb8d" stroke="#16302a" stroke-width="2.1"/><path d="M692 820.2 L792 820.2" fill="none" stroke="#c09a68" stroke-width="1.5" stroke-linecap="round" stroke-linejoin="round"/><path d="M692 850.1 L792 850.1" fill="none" stroke="#c09a68" stroke-width="1.5" stroke-linecap="round" stroke-linejoin="round"/><rect x="814.0" y="820.0" width="70.0" height="58.0" rx="0" fill="#dcbb8d" stroke="#16302a" stroke-width="2.1"/><path d="M814 838.6 L884 838.6" fill="none" stroke="#c09a68" stroke-width="1.5" stroke-linecap="round" stroke-linejoin="round"/><path d="M814 858.3 L884 858.3" fill="none" stroke="#c09a68" stroke-width="1.5" stroke-linecap="round" stroke-linejoin="round"/><rect x="953.0" y="804.0" width="18.0" height="76.0" rx="4" fill="#4f9c86" stroke="#16302a" stroke-width="2.0"/><ellipse cx="962" cy="804" rx="9" ry="4" fill="#ffffff" stroke="#16302a" stroke-width="1.8"/><rect x="983.0" y="804.0" width="18.0" height="76.0" rx="4" fill="#f5b23d" stroke="#16302a" stroke-width="2.0"/><ellipse cx="992" cy="804" rx="9" ry="4" fill="#ffffff" stroke="#16302a" stroke-width="1.8"/><rect x="1013.0" y="804.0" width="18.0" height="76.0" rx="4" fill="#7ab393" stroke="#16302a" stroke-width="2.0"/><ellipse cx="1022" cy="804" rx="9" ry="4" fill="#ffffff" stroke="#16302a" stroke-width="1.8"/><ellipse cx="1064.0" cy="879.0" rx="40.0" ry="6.8" fill="#16302a" opacity="0.16"/><path d="M1057.0 788.0 C1055.7 831.1 1054.1 831.1 1053.0 873.2" fill="none" stroke="#16302a" stroke-width="11.4" stroke-linecap="round" stroke-linejoin="round"/><path d="M1057.0 788.0 C1055.7 831.1 1054.1 831.1 1053.0 873.2" fill="none" stroke="#3f5b70" stroke-width="8.8" stroke-linecap="round" stroke-linejoin="round"/><path d="M1071.0 788.0 C1072.8 831.1 1075.0 831.1 1076.6 873.2" fill="none" stroke="#16302a" stroke-width="11.4" stroke-linecap="round" stroke-linejoin="round"/><path d="M1071.0 788.0 C1072.8 831.1 1075.0 831.1 1076.6 873.2" fill="none" stroke="#3f5b70" stroke-width="8.8" stroke-linecap="round" stroke-linejoin="round"/><path d="M1046.7 876.0 L1060.1 876.0" fill="none" stroke="#16302a" stroke-width="5.279999999999999" stroke-linecap="round" stroke-linejoin="round"/><path d="M1070.2 876.0 L1083.6 876.0" fill="none" stroke="#16302a" stroke-width="5.279999999999999" stroke-linecap="round" stroke-linejoin="round"/><path d="M1049.1 739.4 C1043.3 758.8 1044.1 784.5 1047.1 793.3" fill="none" stroke="#16302a" stroke-width="9.992" stroke-linecap="round" stroke-linejoin="round"/><path d="M1049.1 739.4 C1043.3 758.8 1044.1 784.5 1047.1 793.3" fill="none" stroke="#4f9c86" stroke-width="7.392" stroke-linecap="round" stroke-linejoin="round"/><path d="M1047.5 736.3 C1047.0 728.9 1081.0 728.9 1080.5 736.3 C1078.7 758.8 1077.4 777.4 1076.8 788.0 L1051.2 788.0 C1050.6 777.4 1049.3 758.8 1047.5 736.3 Z" fill="#4f9c86" stroke="#16302a" stroke-width="2.1" stroke-linecap="round" stroke-linejoin="round"/><path d="M1050.4 774.8 L1077.6 774.8" fill="none" stroke="#fbdca6" stroke-width="3.52" stroke-linecap="round" stroke-linejoin="round"/><path d="M1064.0 726.0 L1064.0 734.1" fill="none" stroke="#f1d3b9" stroke-width="5.279999999999999" stroke-linecap="round" stroke-linejoin="round"/><circle cx="1064.0" cy="713.2" r="13.0" fill="#f1d3b9" stroke="#16302a" stroke-width="2.0"/><path d="M1048.4 712.4 A15.9 15.1 0 0 1 1079.6 712.4 Z" fill="#f5b23d" stroke="#16302a" stroke-width="2.0" stroke-linecap="round" stroke-linejoin="round"/><path d="M1045.0 712.9 L1083.0 712.9" fill="none" stroke="#f5b23d" stroke-width="4.576" stroke-linecap="round" stroke-linejoin="round"/><path d="M1045.0 712.9 L1083.0 712.9" fill="none" stroke="#16302a" stroke-width="1.8" stroke-linecap="round" stroke-linejoin="round"/><path d="M1078.9 739.4 C1088.8 746.5 1094.1 748.2 1096.8 747.3" fill="none" stroke="#16302a" stroke-width="9.992" stroke-linecap="round" stroke-linejoin="round"/><path d="M1078.9 739.4 C1088.8 746.5 1094.1 748.2 1096.8 747.3" fill="none" stroke="#4f9c86" stroke-width="7.392" stroke-linecap="round" stroke-linejoin="round"/><ellipse cx="1306.0" cy="871.0" rx="38.0" ry="6.5" fill="#16302a" opacity="0.16"/><path d="M1299.4 784.0 C1298.1 825.2 1296.6 825.2 1295.5 865.3" fill="none" stroke="#16302a" stroke-width="11.0" stroke-linecap="round" stroke-linejoin="round"/><path d="M1299.4 784.0 C1298.1 825.2 1296.6 825.2 1295.5 865.3" fill="none" stroke="#cdd4d0" stroke-width="8.4" stroke-linecap="round" stroke-linejoin="round"/><path d="M1312.6 784.0 C1314.4 825.2 1316.5 825.2 1318.0 865.3" fill="none" stroke="#16302a" stroke-width="11.0" stroke-linecap="round" stroke-linejoin="round"/><path d="M1312.6 784.0 C1314.4 825.2 1316.5 825.2 1318.0 865.3" fill="none" stroke="#cdd4d0" stroke-width="8.4" stroke-linecap="round" stroke-linejoin="round"/><path d="M1289.5 868.0 L1302.3 868.0" fill="none" stroke="#16302a" stroke-width="5.04" stroke-linecap="round" stroke-linejoin="round"/><path d="M1312.0 868.0 L1324.7 868.0" fill="none" stroke="#16302a" stroke-width="5.04" stroke-linecap="round" stroke-linejoin="round"/><path d="M1320.2 737.6 C1325.7 756.1 1325.0 780.6 1322.1 789.0" fill="none" stroke="#16302a" stroke-width="9.656" stroke-linecap="round" stroke-linejoin="round"/><path d="M1320.2 737.6 C1325.7 756.1 1325.0 780.6 1322.1 789.0" fill="none" stroke="#157c47" stroke-width="7.056" stroke-linecap="round" stroke-linejoin="round"/><path d="M1290.2 734.6 C1289.7 727.6 1322.3 727.6 1321.8 734.6 C1320.0 756.1 1318.8 773.9 1318.3 784.0 L1293.7 784.0 C1293.2 773.9 1292.0 756.1 1290.2 734.6 Z" fill="#157c47" stroke="#16302a" stroke-width="2.1" stroke-linecap="round" stroke-linejoin="round"/><path d="M1293.0 771.4 L1319.0 771.4" fill="none" stroke="#fbdca6" stroke-width="3.36" stroke-linecap="round" stroke-linejoin="round"/><path d="M1306.0 724.9 L1306.0 732.6" fill="none" stroke="#f1d3b9" stroke-width="5.04" stroke-linecap="round" stroke-linejoin="round"/><circle cx="1306.0" cy="712.6" r="12.4" fill="#f1d3b9" stroke="#16302a" stroke-width="2.0"/><path d="M1291.1 711.9 A15.2 14.4 0 0 1 1320.9 711.9 Z" fill="#ffffff" stroke="#16302a" stroke-width="2.0" stroke-linecap="round" stroke-linejoin="round"/><path d="M1287.8 712.4 L1324.2 712.4" fill="none" stroke="#ffffff" stroke-width="4.367999999999999" stroke-linecap="round" stroke-linejoin="round"/><path d="M1287.8 712.4 L1324.2 712.4" fill="none" stroke="#16302a" stroke-width="1.8" stroke-linecap="round" stroke-linejoin="round"/><path d="M1291.8 737.3 C1280.7 734.3 1272.8 727.6 1268.7 723.4" fill="none" stroke="#16302a" stroke-width="9.656" stroke-linecap="round" stroke-linejoin="round"/><path d="M1291.8 737.3 C1280.7 734.3 1272.8 727.6 1268.7 723.4" fill="none" stroke="#157c47" stroke-width="7.056" stroke-linecap="round" stroke-linejoin="round"/></g></svg>